# Blender3D v249 OBJ File: RocksRealistic.blend
# www.blender3d.org
v 0.026028 -0.899662 0.000000
v 1.677490 -0.125662 1.741335
v -1.696099 -0.516081 2.346985
v -3.749004 -0.588489 -0.020173
v -0.851000 -0.005289 -2.069170
v 1.476896 -0.100787 -1.096905
v 1.163989 3.383444 2.530838
v -2.832380 1.407523 0.979940
v -1.786687 1.893439 -1.346556
v 0.777568 1.990722 -2.048997
v 2.013340 3.639833 0.183852
v 0.346134 4.670222 0.183852
vt 0.000000 0.000000
vt 1.000000 0.000000
vt 1.000000 1.000000
vn -0.275246 -0.518143 0.809778
vn 0.129704 -0.986236 -0.102268
vn 0.731986 -0.556871 0.392468
vn 0.698202 -0.525864 -0.485733
vn -0.833888 -0.492813 -0.248421
vn -0.104343 -0.468368 -0.877316
vn 0.919065 0.359752 -0.160741
vn 0.184027 0.479537 0.857997
vn -0.779077 0.505814 0.370342
vn -0.590197 0.454207 -0.667318
vn 0.268014 0.296030 -0.916776
vn -0.170415 0.957488 -0.232643
usemtl RockMaterial
s 1
f 3/1/1 1/2/2 2/3/3
f 2/1/3 1/2/2 6/3/4
f 4/1/5 1/2/2 3/3/1
f 5/1/6 1/2/2 4/3/5
f 6/1/4 1/2/2 5/3/6
f 2/1/3 6/2/4 11/3/7
f 3/1/1 2/2/3 7/3/8
f 4/1/5 3/2/1 8/3/9
f 5/1/6 4/2/5 9/3/10
f 6/1/4 5/2/6 10/3/11
f 11/1/7 7/2/8 2/3/3
f 7/1/8 8/2/9 3/3/1
f 8/1/9 9/2/10 4/3/5
f 9/1/10 10/2/11 5/3/6
f 10/1/11 11/2/7 6/3/4
f 7/1/8 11/2/7 12/3/12
f 8/1/9 7/2/8 12/3/12
f 9/1/10 8/2/9 12/3/12
f 10/1/11 9/2/10 12/3/12
f 11/1/7 10/2/11 12/3/12
